<svg width="1444" height="1388" viewBox="0 0 1444 1388" fill="none" xmlns="http://www.w3.org/2000/svg">
<path d="M3.39317 625.227L1442.96 241.088" stroke="#004440" stroke-width="3"/>
<line y1="-1.5" x2="1456.43" y2="-1.5" transform="matrix(0.988007 -0.154406 0.138649 0.990342 3.7583 543.468)" stroke="#004440" stroke-width="3"/>
<line x1="1.79058" y1="1387.11" x2="1017.87" y2="2.16812" stroke="#004440" stroke-width="3"/>
<path d="M3.20038 756.032L1443.22 144.948" stroke="#004440" stroke-width="3"/>
<line x1="2.12698" y1="965.78" x2="1349" y2="1.7796" stroke="#004440" stroke-width="3"/>
<path d="M111 888L149.5 860" stroke="#2AC7BD" stroke-width="3"/>
<path d="M537 657.5L560 626.5" stroke="#2AC7BD" stroke-width="3"/>
<path d="M922 132L902 159" stroke="#2AC7BD" stroke-width="3"/>
<path d="M1016 240L1065 205" stroke="#2AC7BD" stroke-width="3"/>
<g filter="url(#filter0_d_329:183)">
<path d="M1269.5 287.5L1311.5 276" stroke="#2AC7BD" stroke-width="3"/>
</g>
<path d="M18 749L57 733" stroke="#2AC7BD" stroke-width="3"/>
<path d="M849 410L883 404.5" stroke="#2AC7BD" stroke-width="3"/>
<path d="M365 485.5L410 478.5M1258 223.5L1309 202" stroke="#2AC7BD" stroke-width="3"/>
<path d="M327 944L350 912.5" stroke="#2AC7BD" stroke-width="3"/>
<defs>
<filter id="filter0_d_329:183" x="1265.1" y="274.553" width="50.7925" height="22.3936" filterUnits="userSpaceOnUse" color-interpolation-filters="sRGB">
<feFlood flood-opacity="0" result="BackgroundImageFix"/>
<feColorMatrix in="SourceAlpha" type="matrix" values="0 0 0 0 0 0 0 0 0 0 0 0 0 0 0 0 0 0 127 0" result="hardAlpha"/>
<feOffset dy="4"/>
<feGaussianBlur stdDeviation="2"/>
<feComposite in2="hardAlpha" operator="out"/>
<feColorMatrix type="matrix" values="0 0 0 0 0 0 0 0 0 0 0 0 0 0 0 0 0 0 0.25 0"/>
<feBlend mode="normal" in2="BackgroundImageFix" result="effect1_dropShadow_329:183"/>
<feBlend mode="normal" in="SourceGraphic" in2="effect1_dropShadow_329:183" result="shape"/>
</filter>
</defs>
</svg>
